<?xml version="1.0" standalone="no"?>
<!DOCTYPE svg PUBLIC "-//W3C//DTD SVG 20010904//EN"
 "http://www.w3.org/TR/2001/REC-SVG-20010904/DTD/svg10.dtd">
<svg version="1.0" xmlns="http://www.w3.org/2000/svg"
 width="700.000000pt" height="700.000000pt" viewBox="0 0 700.000000 700.000000"
 preserveAspectRatio="xMidYMid meet">
<metadata>
Created by potrace 1.14, written by Peter Selinger 2001-2017
</metadata>
<g transform="translate(0.000000,700.000000) scale(0.100000,-0.100000)"
fill="#000000" stroke="none">
<path d="M660 6973 c-56 -28 -104 -84 -119 -138 -5 -19 -8 -1320 -7 -3121 l1
-3089 22 -40 c11 -22 34 -52 50 -67 15 -14 246 -135 513 -269 458 -229 488
-242 547 -245 l62 -3 430 214 430 214 423 -212 c420 -210 424 -212 488 -212
65 0 66 1 489 212 l424 212 425 -212 425 -212 66 0 c66 1 66 1 547 242 264
133 495 253 513 268 17 15 42 46 54 69 l22 41 2 3085 c2 2158 -1 3096 -8 3120
-32 104 -111 163 -218 164 l-66 1 -424 -212 -423 -213 -422 211 c-393 197
-425 211 -484 215 l-63 3 -429 -214 -430 -215 -423 212 c-400 200 -425 211
-485 214 l-62 3 -428 -214 -427 -214 -425 212 c-391 195 -429 212 -482 214
-44 1 -69 -4 -108 -24z m2840 -885 c51 1 84 15 485 214 l430 214 425 -213
c412 -206 427 -213 485 -213 58 0 73 6 355 147 162 81 303 151 313 155 16 7
17 -110 17 -2370 -1 -2059 -3 -2373 -15 -2344 -24 56 -65 100 -113 124 -45 22
-58 23 -313 24 -310 1 -337 -4 -404 -71 -107 -107 -78 -288 58 -362 28 -16 67
-18 307 -21 191 -2 288 0 318 9 57 16 127 79 145 132 14 39 15 14 16 -323 l1
-365 -342 -171 -343 -171 -405 203 c-223 112 -423 209 -445 217 -79 26 -112
13 -551 -207 -226 -113 -416 -206 -423 -206 -7 0 -201 94 -431 209 -231 115
-434 211 -452 213 -18 2 -50 0 -72 -5 -21 -4 -223 -100 -449 -212 -226 -113
-416 -205 -424 -205 -7 0 -164 75 -348 167 l-335 168 1 365 c1 283 4 357 12
330 16 -50 95 -126 147 -140 27 -7 135 -10 318 -8 305 3 306 4 370 69 46 47
66 107 59 178 -8 94 -63 163 -154 195 -51 17 -564 15 -608 -3 -53 -22 -92 -59
-119 -113 l-26 -52 0 2377 0 2377 28 -12 c15 -7 156 -77 313 -155 271 -136
288 -143 344 -143 58 0 74 7 485 213 l425 213 430 -214 c405 -201 433 -214
485 -214z"/>
<path d="M4690 5933 c-72 -11 -132 -51 -168 -113 -22 -37 -28 -62 -32 -133
l-5 -89 -70 -27 c-167 -66 -293 -167 -395 -318 -45 -68 -102 -195 -115 -259
-19 -96 -23 -139 -20 -224 3 -112 27 -195 82 -290 46 -79 162 -198 263 -271
81 -58 87 -62 170 -110 81 -47 105 -60 215 -119 376 -198 488 -299 480 -430
-14 -200 -178 -353 -378 -352 -110 1 -190 35 -269 114 -71 72 -99 139 -113
272 -4 33 -15 76 -25 95 -54 107 -182 152 -291 104 -101 -45 -145 -133 -135
-271 25 -324 239 -606 551 -723 l55 -20 0 -77 c0 -88 21 -144 70 -192 62 -60
146 -79 231 -50 98 34 151 113 155 235 1 39 2 75 3 81 1 6 15 14 31 18 17 3
56 18 88 32 251 118 427 352 477 634 11 59 8 205 -5 261 -27 118 -115 261
-214 349 -21 19 -51 45 -65 58 -56 50 -225 155 -406 252 -186 100 -325 179
-335 190 -3 3 -23 19 -45 35 -107 80 -140 137 -133 234 9 120 92 247 196 300
213 109 479 -6 546 -234 3 -11 8 -49 12 -85 10 -111 52 -183 130 -219 121 -57
260 -4 312 119 15 37 19 129 7 201 -39 251 -185 470 -396 597 -67 40 -162 82
-185 82 -15 0 -15 1 -19 100 -2 80 -29 144 -77 186 -48 43 -119 65 -178 57z"/>
<path d="M1606 5620 c-88 -27 -158 -121 -158 -213 -1 -91 45 -166 127 -210 40
-21 47 -21 691 -22 714 -2 710 -2 775 57 121 110 93 306 -53 376 -42 20 -57
21 -698 21 -360 -1 -668 -4 -684 -9z"/>
<path d="M1608 4707 c-75 -18 -149 -108 -161 -196 -9 -65 33 -161 88 -201 64
-47 30 -45 730 -48 591 -2 665 -1 703 14 158 60 201 261 80 377 -66 63 -39 61
-753 62 -361 1 -667 -3 -687 -8z"/>
<path d="M1606 3793 c-91 -27 -158 -118 -158 -216 0 -91 46 -163 131 -207 42
-21 49 -21 703 -20 650 0 663 0 705 21 56 27 108 89 122 144 14 57 14 71 -4
133 -18 60 -61 107 -125 136 -44 19 -64 20 -689 20 -477 1 -654 -2 -685 -11z"/>
<path d="M1564 2860 c-77 -43 -115 -110 -115 -198 0 -96 56 -177 147 -211 46
-17 95 -18 699 -17 616 2 652 3 690 21 70 33 121 101 131 175 14 96 -42 197
-131 239 -45 21 -52 21 -708 21 l-662 -1 -51 -29z"/>
<path d="M2523 1815 c-125 -37 -191 -166 -149 -292 16 -49 66 -107 116 -134
33 -19 557 -26 619 -9 56 15 135 91 150 145 32 117 -14 227 -117 277 -45 22
-56 23 -314 23 -171 1 -281 -3 -305 -10z"/>
<path d="M3909 1820 c-169 -29 -237 -246 -118 -375 65 -70 91 -75 393 -75 153
0 277 4 299 11 44 12 111 68 134 112 21 41 28 127 14 170 -20 58 -66 113 -118
138 -47 23 -55 24 -308 24 -143 0 -276 -2 -296 -5z"/>
</g>
</svg>
